<?xml version="1.0" encoding="UTF-8"?>
<svg width="216px" height="17px" viewBox="0 0 216 17" version="1.1" xmlns="http://www.w3.org/2000/svg" xmlns:xlink="http://www.w3.org/1999/xlink">
    <!-- Generator: Sketch 51.3 (57544) - http://www.bohemiancoding.com/sketch -->
    <title>clayafairbanks@gmail</title>
    <desc>Created with Sketch.</desc>
    <defs></defs>
    <g id="Redesigned-Portfolio" stroke="none" stroke-width="1" fill="none" fill-rule="evenodd">
        <g id="iPhone-X" transform="translate(-72.000000, -420.000000)" fill="#3C3CFF">
            <path d="M77.3404,433.2028 C74.8899,433.2028 72.8112,431.1072 72.8112,428.6229 C72.8112,426.1386 74.8899,424.0599 77.3404,424.0599 C78.5234,424.0599 79.6219,424.55 80.45,425.3443 L79.5712,426.2062 C78.9966,425.5809 78.2023,425.1922 77.3404,425.1922 C75.5997,425.1922 74.1463,426.7639 74.1463,428.6229 C74.1463,430.4988 75.5997,432.0705 77.3404,432.0705 C78.2192,432.0705 79.0304,431.6649 79.6219,431.0058 L80.5007,431.8677 C79.6726,432.6958 78.5572,433.2028 77.3404,433.2028 Z M82.5901546,433 L82.5901546,421.1869 L83.8576546,421.1869 L83.8576546,433 L82.5901546,433 Z M90.1214092,424.0599 C92.5043092,424.0599 93.6704092,425.564 93.6704092,427.6765 L93.6704092,433 L92.4029092,433 L92.4029092,431.6311 C91.7776092,432.662 90.4763092,433.2028 89.3271092,433.2028 C87.4850092,433.2028 86.1330092,432.1381 86.1330092,430.4143 C86.1330092,428.6736 87.6878092,427.5075 89.5637092,427.5075 C90.5101092,427.5075 91.5072092,427.7103 92.4029092,427.9976 L92.4029092,427.6765 C92.4029092,426.4935 91.9297092,425.1415 90.0369092,425.1415 C89.1581092,425.1415 88.2793092,425.5302 87.4850092,425.9358 L86.9780092,424.9049 C88.2286092,424.2796 89.2764092,424.0599 90.1214092,424.0599 Z M89.5468092,432.0874 C90.6960092,432.0874 92.0649092,431.4959 92.4029092,430.2622 L92.4029092,428.9271 C91.6086092,428.7074 90.7129092,428.5722 89.7665092,428.5722 C88.4652092,428.5722 87.3667092,429.3158 87.3667092,430.3636 C87.3667092,431.4452 88.3131092,432.0874 89.5468092,432.0874 Z M97.7033638,436.042 C97.1963638,436.042 96.7231638,435.9406 96.3175638,435.7547 L96.6217638,434.6731 C96.9259638,434.8252 97.2808638,434.8928 97.6526638,434.8928 C98.2103638,434.8928 98.5821638,434.7069 98.9201638,434.1154 L99.4271638,433.0338 L95.6246638,424.2627 L97.0273638,424.2627 L100.086264,431.5297 L102.976164,424.2627 L104.345064,424.2627 L100.356664,433.9802 C99.7482638,435.4674 98.9032638,436.0251 97.7033638,436.042 Z M110.118718,424.0599 C112.501618,424.0599 113.667718,425.564 113.667718,427.6765 L113.667718,433 L112.400218,433 L112.400218,431.6311 C111.774918,432.662 110.473618,433.2028 109.324418,433.2028 C107.482318,433.2028 106.130318,432.1381 106.130318,430.4143 C106.130318,428.6736 107.685118,427.5075 109.561018,427.5075 C110.507418,427.5075 111.504518,427.7103 112.400218,427.9976 L112.400218,427.6765 C112.400218,426.4935 111.927018,425.1415 110.034218,425.1415 C109.155418,425.1415 108.276618,425.5302 107.482318,425.9358 L106.975318,424.9049 C108.225918,424.2796 109.273718,424.0599 110.118718,424.0599 Z M109.544118,432.0874 C110.693318,432.0874 112.062218,431.4959 112.400218,430.2622 L112.400218,428.9271 C111.605918,428.7074 110.710218,428.5722 109.763818,428.5722 C108.462518,428.5722 107.364018,429.3158 107.364018,430.3636 C107.364018,431.4452 108.310418,432.0874 109.544118,432.0874 Z M118.376673,423.0628 L118.376673,424.2627 L120.522973,424.2627 L120.522973,425.395 L118.376673,425.395 L118.376673,433 L117.109173,433 L117.109173,425.395 L115.740273,425.395 L115.740273,424.2627 L117.109173,424.2627 L117.109173,423.0628 C117.109173,421.7615 117.987973,420.832 119.238573,420.832 C119.830073,420.832 120.404673,421.0348 120.860973,421.3897 L120.235673,422.3192 C120.049773,422.1164 119.711773,421.9643 119.323073,421.9643 C118.816073,421.9643 118.376673,422.4206 118.376673,423.0628 Z M126.026228,424.0599 C128.409128,424.0599 129.575228,425.564 129.575228,427.6765 L129.575228,433 L128.307728,433 L128.307728,431.6311 C127.682428,432.662 126.381128,433.2028 125.231928,433.2028 C123.389828,433.2028 122.037828,432.1381 122.037828,430.4143 C122.037828,428.6736 123.592628,427.5075 125.468528,427.5075 C126.414928,427.5075 127.412028,427.7103 128.307728,427.9976 L128.307728,427.6765 C128.307728,426.4935 127.834528,425.1415 125.941728,425.1415 C125.062928,425.1415 124.184128,425.5302 123.389828,425.9358 L122.882828,424.9049 C124.133428,424.2796 125.181228,424.0599 126.026228,424.0599 Z M125.451628,432.0874 C126.600828,432.0874 127.969728,431.4959 128.307728,430.2622 L128.307728,428.9271 C127.513428,428.7074 126.617728,428.5722 125.671328,428.5722 C124.370028,428.5722 123.271528,429.3158 123.271528,430.3636 C123.271528,431.4452 124.217928,432.0874 125.451628,432.0874 Z M132.932182,422.6741 C132.458982,422.6741 132.087182,422.2854 132.087182,421.8291 C132.087182,421.3897 132.458982,421.001 132.932182,421.001 C133.388482,421.001 133.760282,421.3897 133.760282,421.8291 C133.760282,422.2854 133.388482,422.6741 132.932182,422.6741 Z M132.289982,433 L132.289982,424.2627 L133.557482,424.2627 L133.557482,433 L132.289982,433 Z M137.641137,425.9696 C138.165037,424.8035 139.415637,424.0599 141.021137,424.0599 L141.021137,425.1922 C139.043837,425.1922 137.641137,426.409 137.641137,428.1159 L137.641137,433 L136.373637,433 L136.373637,424.2627 L137.641137,424.2627 L137.641137,425.9696 Z M147.487691,424.0599 C149.786091,424.0599 151.509891,425.9527 151.509891,428.6229 C151.509891,431.31 149.786091,433.2028 147.487691,433.2028 C146.084991,433.2028 144.969591,432.5099 144.310491,431.3607 L144.310491,433 L143.042991,433 L143.042991,421.1869 L144.310491,421.1869 L144.310491,425.902 C144.969591,424.7528 146.084991,424.0599 147.487691,424.0599 Z M147.251091,432.0705 C148.957991,432.0705 150.174791,430.634 150.174791,428.6229 C150.174791,426.6118 148.957991,425.1922 147.251091,425.1922 C145.527291,425.1922 144.310491,426.6118 144.310491,428.6229 C144.310491,430.634 145.527291,432.0705 147.251091,432.0705 Z M157.401846,424.0599 C159.784746,424.0599 160.950846,425.564 160.950846,427.6765 L160.950846,433 L159.683346,433 L159.683346,431.6311 C159.058046,432.662 157.756746,433.2028 156.607546,433.2028 C154.765446,433.2028 153.413446,432.1381 153.413446,430.4143 C153.413446,428.6736 154.968246,427.5075 156.844146,427.5075 C157.790546,427.5075 158.787646,427.7103 159.683346,427.9976 L159.683346,427.6765 C159.683346,426.4935 159.210146,425.1415 157.317346,425.1415 C156.438546,425.1415 155.559746,425.5302 154.765446,425.9358 L154.258446,424.9049 C155.509046,424.2796 156.556846,424.0599 157.401846,424.0599 Z M156.827246,432.0874 C157.976446,432.0874 159.345346,431.4959 159.683346,430.2622 L159.683346,428.9271 C158.889046,428.7074 157.993346,428.5722 157.046946,428.5722 C155.745646,428.5722 154.647146,429.3158 154.647146,430.3636 C154.647146,431.4452 155.593546,432.0874 156.827246,432.0874 Z M167.839901,424.0599 C169.766501,424.0599 171.118501,425.4626 171.118501,427.4399 L171.118501,433 L169.851001,433 L169.851001,427.6089 C169.851001,426.1893 168.955301,425.1922 167.670901,425.1922 C166.200601,425.1922 164.966901,426.2231 164.966901,427.4399 L164.966901,433 L163.699401,433 L163.699401,424.2627 L164.966901,424.2627 L164.966901,425.6654 C165.473901,424.7359 166.606201,424.0599 167.839901,424.0599 Z M181.488955,424.2627 L177.551255,428.268 L181.269255,433 L179.680655,433 L176.655555,429.1299 L175.083855,430.6847 L175.083855,433 L173.816355,433 L173.816355,421.1869 L175.083855,421.1869 L175.083855,429.0961 L179.866555,424.2627 L181.488955,424.2627 Z M186.24861,433.2028 C185.03181,433.2028 183.67981,432.7465 182.63201,431.9015 L183.29111,430.972 C184.28821,431.6987 185.28531,432.0705 186.24861,432.0705 C187.39781,432.0705 188.17521,431.5297 188.17521,430.7016 C188.17521,429.7552 187.16121,429.451 185.97821,429.113 C183.86571,428.5046 183.05451,427.8793 183.05451,426.6287 C183.05451,425.0401 184.37271,424.0599 186.11341,424.0599 C187.19501,424.0599 188.31041,424.4317 189.23991,425.0401 L188.63151,426.0203 C187.75271,425.4626 186.89081,425.1922 186.11341,425.1922 C185.13321,425.1922 184.32201,425.6316 184.32201,426.4766 C184.32201,427.2371 184.96421,427.4737 186.58661,427.9976 C187.98931,428.437 189.44271,428.9102 189.44271,430.5664 C189.44271,432.1719 188.05691,433.2028 186.24861,433.2028 Z M197.599264,434.9604 C194.100964,434.9604 191.143464,432.0705 191.143464,428.6229 C191.143464,424.8035 194.371364,421.5925 198.207664,421.5925 C201.655264,421.5925 204.545164,424.3472 204.545164,427.6089 C204.545164,430.3636 202.990364,431.6818 201.503164,431.6818 C200.455364,431.6818 199.745564,431.1241 199.559664,430.2284 C198.934364,431.0396 197.987964,431.6818 196.821864,431.6818 C195.199464,431.6818 194.016464,430.5157 194.016464,428.7581 C194.016464,426.3921 195.993764,424.5331 197.954164,424.5331 C199.154064,424.5331 199.897664,425.1753 200.269464,425.902 L200.489164,424.7866 L201.621464,424.8711 C201.097564,427.5582 200.725764,429.3496 200.725764,429.7721 C200.725764,430.4819 201.165164,430.8875 201.841164,430.8875 C202.770664,430.8875 203.936764,429.9749 203.936764,427.6089 C203.936764,424.6683 201.300364,422.2009 198.173864,422.2009 C194.709364,422.2009 191.785664,425.1246 191.785664,428.606 C191.785664,431.7325 194.455864,434.3689 197.633064,434.3689 C199.018864,434.3689 200.049764,434.0816 201.283464,433.338 L201.587664,433.7943 C200.286364,434.6224 199.137164,434.9604 197.599264,434.9604 Z M197.126064,430.6847 C198.714664,430.6847 199.728664,429.3834 199.897664,427.7441 C200.032864,426.3921 199.441364,425.5302 198.106264,425.5302 C196.551464,425.5302 195.233264,427.0005 195.233264,428.6905 C195.233264,429.8904 195.976864,430.6847 197.126064,430.6847 Z M213.512919,424.2627 L214.780419,424.2627 L214.780419,432.0705 C214.780419,434.3182 213.005919,435.9068 210.487819,435.9068 C209.068219,435.9068 207.750019,435.4167 206.955719,434.7407 L207.513419,433.7436 C208.189419,434.3858 209.237219,434.7745 210.318819,434.7745 C212.329919,434.7745 213.512919,433.7774 213.512919,432.0705 L213.512919,430.6509 C212.836919,431.7156 211.721519,432.3578 210.335719,432.3578 C207.986619,432.3578 206.313519,430.634 206.313519,428.2004 C206.313519,425.7668 207.986619,424.0599 210.335719,424.0599 C211.721519,424.0599 212.836919,424.7021 213.512919,425.7668 L213.512919,424.2627 Z M210.572319,431.2255 C212.296119,431.2255 213.512919,429.9749 213.512919,428.2004 C213.512919,426.4428 212.296119,425.1922 210.572319,425.1922 C208.865419,425.1922 207.648619,426.4428 207.648619,428.2004 C207.648619,429.9749 208.865419,431.2255 210.572319,431.2255 Z M227.060574,424.0599 C228.885774,424.0599 230.170174,425.4626 230.170174,427.4399 L230.170174,433 L228.902674,433 L228.902674,427.6089 C228.902674,426.1893 228.074574,425.1922 226.891574,425.1922 C225.505774,425.1922 224.525574,426.1217 224.525574,427.4399 L224.525574,433 L223.258074,433 L223.258074,427.6089 C223.258074,426.1893 222.429974,425.1922 221.246974,425.1922 C219.861174,425.1922 218.880974,426.1217 218.880974,427.4399 L218.880974,433 L217.613474,433 L217.613474,424.2627 L218.880974,424.2627 L218.880974,425.5471 C219.320374,424.6345 220.266774,424.0599 221.415974,424.0599 C222.734174,424.0599 223.765074,424.7866 224.238274,425.9189 C224.593174,424.7866 225.742374,424.0599 227.060574,424.0599 Z M236.433928,424.0599 C238.816828,424.0599 239.982928,425.564 239.982928,427.6765 L239.982928,433 L238.715428,433 L238.715428,431.6311 C238.090128,432.662 236.788828,433.2028 235.639628,433.2028 C233.797528,433.2028 232.445528,432.1381 232.445528,430.4143 C232.445528,428.6736 234.000328,427.5075 235.876228,427.5075 C236.822628,427.5075 237.819728,427.7103 238.715428,427.9976 L238.715428,427.6765 C238.715428,426.4935 238.242228,425.1415 236.349428,425.1415 C235.470628,425.1415 234.591828,425.5302 233.797528,425.9358 L233.290528,424.9049 C234.541128,424.2796 235.588928,424.0599 236.433928,424.0599 Z M235.859328,432.0874 C237.008528,432.0874 238.377428,431.4959 238.715428,430.2622 L238.715428,428.9271 C237.921128,428.7074 237.025428,428.5722 236.079028,428.5722 C234.777728,428.5722 233.679228,429.3158 233.679228,430.3636 C233.679228,431.4452 234.625628,432.0874 235.859328,432.0874 Z M243.339883,422.6741 C242.866683,422.6741 242.494883,422.2854 242.494883,421.8291 C242.494883,421.3897 242.866683,421.001 243.339883,421.001 C243.796183,421.001 244.167983,421.3897 244.167983,421.8291 C244.167983,422.2854 243.796183,422.6741 243.339883,422.6741 Z M242.697683,433 L242.697683,424.2627 L243.965183,424.2627 L243.965183,433 L242.697683,433 Z M246.663037,433 L246.663037,421.1869 L247.930537,421.1869 L247.930537,433 L246.663037,433 Z M251.524092,433.2028 C251.000192,433.2028 250.594592,432.7803 250.594592,432.2733 C250.594592,431.8001 251.000192,431.3776 251.524092,431.3776 C252.014192,431.3776 252.419792,431.8001 252.419792,432.2733 C252.419792,432.7803 252.014192,433.2028 251.524092,433.2028 Z M259.122947,433.2028 C256.672447,433.2028 254.593747,431.1072 254.593747,428.6229 C254.593747,426.1386 256.672447,424.0599 259.122947,424.0599 C260.305947,424.0599 261.404447,424.55 262.232547,425.3443 L261.353747,426.2062 C260.779147,425.5809 259.984847,425.1922 259.122947,425.1922 C257.382247,425.1922 255.928847,426.7639 255.928847,428.6229 C255.928847,430.4988 257.382247,432.0705 259.122947,432.0705 C260.001747,432.0705 260.812947,431.6649 261.404447,431.0058 L262.283247,431.8677 C261.455147,432.6958 260.339747,433.2028 259.122947,433.2028 Z M268.242801,433.2028 C265.792301,433.2028 263.713601,431.1072 263.713601,428.6229 C263.713601,426.1386 265.792301,424.0599 268.242801,424.0599 C270.693301,424.0599 272.755101,426.1386 272.755101,428.6229 C272.755101,431.1072 270.693301,433.2028 268.242801,433.2028 Z M268.242801,432.0705 C269.966601,432.0705 271.420001,430.4988 271.420001,428.6229 C271.420001,426.7639 269.966601,425.1922 268.242801,425.1922 C266.502101,425.1922 265.048701,426.7639 265.048701,428.6229 C265.048701,430.4988 266.502101,432.0705 268.242801,432.0705 Z M284.443756,424.0599 C286.268956,424.0599 287.553356,425.4626 287.553356,427.4399 L287.553356,433 L286.285856,433 L286.285856,427.6089 C286.285856,426.1893 285.457756,425.1922 284.274756,425.1922 C282.888956,425.1922 281.908756,426.1217 281.908756,427.4399 L281.908756,433 L280.641256,433 L280.641256,427.6089 C280.641256,426.1893 279.813156,425.1922 278.630156,425.1922 C277.244356,425.1922 276.264156,426.1217 276.264156,427.4399 L276.264156,433 L274.996656,433 L274.996656,424.2627 L276.264156,424.2627 L276.264156,425.5471 C276.703556,424.6345 277.649956,424.0599 278.799156,424.0599 C280.117356,424.0599 281.148256,424.7866 281.621456,425.9189 C281.976356,424.7866 283.125556,424.0599 284.443756,424.0599 Z" id="clayafairbanks@gmail"></path>
        </g>
    </g>
</svg>